<svg id="Ebene_1" data-name="Ebene 1" xmlns="http://www.w3.org/2000/svg" viewBox="0 0 1275 440"><defs><style>.cls-1{fill:aqua;}.cls-2{fill:#fff;}</style></defs><rect x="-24" y="-140" width="1366" height="768"/><path class="cls-1" d="M707.51,104l-62,116,62,116,62-116Zm-25,116,25-46.77,25,46.77-25,46.77Z"/><path class="cls-2" d="M166.86,247.51q0,12.63-6.46,21.86a40.88,40.88,0,0,1-18,14.14q-11.56,4.9-26.53,4.9-4.17,0-10.25-.53a116.23,116.23,0,0,1-16.13-3,127.33,127.33,0,0,1-20.94-7.19v-33a147.37,147.37,0,0,0,20.07,10.49,53.51,53.51,0,0,0,21.13,4.18q10.4,0,13.46-3.45t3.06-6.46q0-5.44-5.25-9.18t-15.25-7.73a120.41,120.41,0,0,1-19.43-10.15,45.92,45.92,0,0,1-13.66-13.75,35.41,35.41,0,0,1-5.29-19.53,37.18,37.18,0,0,1,5.34-19.68q5.34-8.79,16.33-14t26.81-5.25a93.43,93.43,0,0,1,20.85,2.19,90,90,0,0,1,15.79,4.91,64.11,64.11,0,0,1,8.55,4.27v31.58a111.15,111.15,0,0,0-18.42-10.59,51.36,51.36,0,0,0-21.71-4.66q-7.59,0-11,2.91a9.11,9.11,0,0,0-3.4,7.19,8.81,8.81,0,0,0,3.4,6.9q3.39,2.91,12.14,7.09a243.93,243.93,0,0,1,24.88,13.12,49.21,49.21,0,0,1,14.62,13.46Q166.86,236.15,166.86,247.51Z"/><path class="cls-2" d="M336.71,286.67H296.19V234.1H235.07v52.57H194.45V152h40.62v49.46h61.12V152h40.52Z"/><path class="cls-2" d="M472.06,286.67H370.52V152h99.89v27H411.14v24.68h56.55v27.11H411.14v28.76h60.92Z"/><path class="cls-2" d="M629.67,286.67H586l-10.59-23.91q-5.84-13.11-10.49-19.19t-9.09-7.77a32.35,32.35,0,0,0-11.42-1.7h-4.56v52.57H499.27V152h69.09q16.71,0,27.4,6.8t15.4,16.52a42.4,42.4,0,0,1,4.71,18.46q0,10.2-3.93,17.25t-8.31,10.25a81.87,81.87,0,0,1-9.82,6.12,39,39,0,0,1,10.74,9q4.23,5.2,11.52,21Zm-55.19-92.12q0-9.33-6.12-13t-19.92-3.69h-8.55v32.45h8.74q14.86,0,20.36-3.25T574.48,194.55Z"/><path class="cls-2" d="M946.94,286.67H910.79l-69.86-75v75H800.7V152h36l69.67,74.63V152h40.52Z"/><path class="cls-1" d="M1021.56,286.67H981V152h40.61Z"/><path class="cls-2" d="M1207.64,286.67h-52.18l-14.28-16.91q-.69-1-8.45-10.35t-10.3-12.78q-11.67,15.75-19,24.88L1091,286.67h-51.4l57.13-70.06L1042.26,152h51.89l9.23,11.27q8,9.83,19,24.49,10.59-15.56,16.9-23L1149.92,152h50.92l-52.37,64.62Z"/></svg>